<svg width="308" height="62" viewBox="0 0 308 62" fill="none" xmlns="http://www.w3.org/2000/svg">
<path d="M307.52 61.644C306.921 51 298.125 42.5453 287.329 42.5453C284.321 42.5453 281.473 43.22 278.905 44.3973C274.427 24.5747 256.72 9.76797 235.544 9.76797C213.913 9.76797 195.897 25.2133 191.905 45.676C188.781 43.704 185.093 42.5453 181.125 42.5453C177.048 42.5453 173.257 43.7613 170.08 45.8373C166.527 38.184 158.985 32.7853 150.115 32.2947C144.819 13.656 127.684 1.89408e-06 107.348 1.89408e-06C86.9053 1.89408e-06 69.696 13.8 64.4973 32.588C63.568 32.4934 62.6253 32.4453 61.6707 32.4453C49.6227 32.4453 39.4013 40.1573 35.6013 50.904C31.8867 46.492 26.3293 43.684 20.1106 43.684C9.70265 43.684 1.13733 51.54 0 61.644H307.52Z" fill="white"/>
</svg>
