<svg width="795" height="769" viewBox="0 0 795 769" fill="none" xmlns="http://www.w3.org/2000/svg">
<path d="M742.779 119.761L741.337 123.614V129.395L740.854 141.92L737.001 148.185L728.329 148.664L723.993 153.963L720.623 159.265L722.065 165.046L723.031 169.865L728.329 168.416H730.254C730.254 168.416 733.148 170.341 733.148 168.416C733.148 166.488 733.631 163.118 732.182 163.118C730.737 163.118 726.884 164.08 726.884 162.152C726.884 160.227 727.846 157.336 727.846 157.336L731.22 156.374L735.073 157.336L743.745 157.816L753.379 165.046C753.379 165.046 754.825 166.488 756.749 165.529C758.682 164.563 763.018 157.336 763.018 157.336C763.018 157.336 765.905 153 768.795 153C771.686 153 777.947 154.929 778.913 153C779.875 151.072 782.283 145.294 782.283 145.294L785.177 143.849L793.849 137.584V132.765L784.694 138.547C784.694 138.547 782.283 134.694 778.913 137.101C775.543 139.513 773.131 139.996 773.131 139.996L759.161 135.177L748.081 126.022L746.156 120.244L742.779 119.761Z" fill="#E000AF"/>
<path d="M734.107 176.126L725.918 179.013L719.657 183.832L719.174 190.579L721.582 196.84L721.102 202.621L715.321 207.92V210.81V212.739C715.321 212.739 719.657 212.256 715.321 216.113C710.985 219.966 716.287 214.664 710.985 219.966C705.686 225.264 705.686 225.264 705.686 225.264L699.905 229.6C699.905 229.6 707.132 231.042 697.977 232.008C688.825 232.974 688.825 232.974 688.825 232.974V224.781L684.006 229.117L682.561 237.306L681.598 242.125L679.187 244.05L677.262 245.978V252.239H671.481L668.111 248.386L664.258 247.427L657.993 249.352C657.993 249.352 658.956 252.239 657.027 252.239C655.103 252.239 648.838 252.239 648.838 252.239L643.061 251.28L632.939 256.1C632.939 256.1 629.086 259.47 628.607 260.911C628.124 262.36 626.675 263.806 624.75 264.289C622.822 264.768 621.38 265.73 621.38 265.73V268.142L628.124 269.583C628.124 269.583 631.494 268.142 633.422 267.176C635.347 266.213 638.724 264.768 638.724 264.768L643.061 262.84L653.657 261.877L659.922 259.953H663.775L667.628 262.84L668.59 268.625L670.036 271.029C670.036 271.029 669.073 273.44 674.372 271.512C679.67 269.583 681.598 269.583 681.598 269.583L686.418 264.768L685.451 261.394L685.934 258.986L690.754 258.504L693.161 260.911H696.048H699.426L706.649 259.47V255.133H714.359H718.212C718.212 255.133 719.174 262.84 724.476 253.688C729.771 244.533 729.295 236.344 729.295 236.344C729.295 236.344 733.631 231.525 733.631 228.638C733.631 225.747 733.148 223.336 733.148 223.336L733.631 213.701L738.443 211.294L742.779 206.474L743.745 202.138L738.443 187.685V181.424L737.484 176.126H734.107Z" fill="#E000AF"/>
<path d="M616.561 273.441L608.372 276.331L605.96 285.003L612.225 286.449V282.592H615.116L617.044 285.966L615.116 294.638L614.633 301.865L620.414 303.31L625.233 299.936C625.233 299.936 626.199 293.676 627.158 292.227C628.124 290.781 631.977 285.966 631.977 285.966C631.977 285.966 632.939 284.52 631.977 283.075C631.011 281.63 627.641 280.184 627.641 280.184L627.158 276.814L621.863 275.848C618.006 275.848 616.561 273.441 616.561 273.441Z" fill="#E000AF"/>
<path d="M636.796 271.03L637.275 274.403C637.275 274.403 637.275 277.294 637.275 278.74C637.275 280.185 636.313 282.113 638.241 282.593C640.166 283.076 640.649 283.559 642.094 283.559C643.54 283.559 643.54 283.559 643.54 283.559C645.464 280.185 645.464 278.739 647.393 278.256C649.321 277.777 644.019 277.777 649.321 277.777C654.62 277.777 657.993 278.256 657.993 278.256C657.993 278.256 659.922 277.777 660.88 275.366C661.846 272.958 661.846 268.626 661.846 268.626L657.993 264.29H652.208L650.284 267.177L646.914 269.105H643.54L636.796 271.03Z" fill="#E000AF"/>
<path d="M391.814 441.165L382.67 440.838L370.903 447.047V451.947C370.903 451.947 371.557 458.81 373.518 458.81C375.476 458.81 382.67 457.179 382.67 457.179C382.67 457.179 387.24 456.525 388.225 455.213C389.202 453.909 391.491 449.005 391.491 449.005L396.391 442.473L391.814 441.165Z" fill="#00BBFF"/>
<path d="M505.54 455.54L500.639 457.829L502.924 466.98L504.232 480.052C504.232 480.052 503.251 484.953 502.27 484.626C501.289 484.302 498.02 482.01 498.02 482.01L494.431 482.34L494.104 488.222L499.658 497.043L502.597 497.37C502.597 497.37 501.943 501.621 501.943 502.925C501.943 504.236 502.924 507.829 502.924 507.829L506.194 509.137C506.194 509.137 513.053 510.772 514.034 510.118C515.018 509.464 517.631 500.967 517.631 500.967L515.018 495.085L513.38 489.857C513.38 489.857 515.019 484.953 516.65 483.648C518.284 482.34 521.227 479.725 521.227 479.725L523.512 474.497L522.204 461.426L517.631 458.483L505.54 455.54Z" fill="#8FC2FF"/>
<path d="M487.564 539.527L484.952 545.736L466.649 570.571L470.246 568.94L479.724 560.115L487.237 552.599L491.161 549.329C491.161 549.329 492.465 543.774 491.815 542.797C491.161 541.816 487.564 539.527 487.564 539.527Z" fill="#8FC2FF"/>
<path d="M221.295 602.38L225.483 610.409C225.483 610.409 242.935 622.972 243.28 624.369C243.633 625.766 248.519 636.582 248.519 636.582L255.148 640.773L258.637 645.31C258.637 645.31 260.034 652.986 260.383 654.732C260.732 656.475 260.383 659.618 262.13 661.361C263.872 663.107 267.365 665.902 267.365 665.902L279.229 672.53L284.813 685.096V691.375C284.813 691.375 297.03 706.033 299.82 708.474C302.611 710.923 321.809 726.625 321.809 726.625L332.279 728.72L338.209 728.372C338.209 728.372 338.209 714.408 338.209 712.662C338.209 710.923 341.698 702.195 341.698 702.195C341.698 702.195 347.283 701.846 347.283 699.754C347.283 697.658 349.029 694.864 347.283 693.122C345.537 691.375 343.794 688.934 342.746 687.537C341.698 686.144 336.114 681.604 336.114 681.604L333.323 683.35V685.442L336.467 687.883L338.559 688.585L340.305 691.725C340.305 691.725 341.349 692.772 341.004 693.82C340.654 694.864 337.86 696.96 337.86 696.96H334.371L331.232 691.375L328.088 688.585L326.695 687.883L324.25 686.839L322.853 686.144L320.412 682.306L316.224 678.115L309.592 676.019V671.482L310.64 667.644L311.688 664.85L308.894 660.663L299.471 652.637L285.162 641.468L276.784 640.424C276.784 640.424 274.343 637.979 272.946 635.883C271.552 633.792 267.714 628.902 267.714 628.902L259.335 623.321C259.335 623.321 255.148 619.832 254.449 618.086C253.751 616.343 251.31 610.057 251.31 610.057L247.821 607.266H233.858L224.435 602.38H221.295Z" fill="#FB90E5"/>
<path d="M523.839 504.344L519.261 510.007L525.582 510.445L530.594 511.095L537.999 517.85L538.434 527.871L542.577 532.664C542.577 532.664 543.665 528.741 545.189 531.36C546.716 533.972 546.716 533.972 546.716 533.972L546.935 535.934L542.577 538.546L544.535 543.774L547.37 545.951L551.286 551.183L553.032 550.529L553.902 545.736L556.956 541.596L559.783 539.2L559.349 533.972C559.349 533.972 556.298 528.525 555.864 527.652C555.429 526.782 552.598 524.824 552.598 524.824L544.754 522.424L542.357 517.85L541.05 512.622L536.91 509.137L533.425 505.214L523.839 504.344Z" fill="#8FC2FF"/>
<path d="M520.354 531.14L518.392 532.883L519.046 540.288C519.046 540.288 519.046 546.827 520.354 547.043C521.662 547.262 525.147 547.262 525.147 547.262L525.801 543.992L528.848 544.212L531.248 549.005C531.248 549.005 531.463 551.182 531.248 551.836C531.029 552.49 527.543 556.625 527.543 556.625V565.561C527.543 565.561 529.286 566.431 530.371 565.777C531.463 565.123 535.603 562.295 535.822 560.984C536.041 559.68 542.138 548.132 542.138 548.132L540.176 545.297L536.91 544.427C536.91 544.427 535.603 543.339 534.729 541.596C533.86 539.853 533.425 537.457 532.117 536.368C530.813 535.276 528.197 533.318 528.197 533.318L520.354 531.14Z" fill="#8FC2FF"/>
<path d="M541.269 571.224L536.476 569.047L530.594 569.701V572.093L528.413 575.363L519.046 580.375L517.957 585.168L521.227 586.692C521.227 586.692 524.055 584.08 525.147 583.861C526.236 583.645 532.552 581.899 532.771 581.245C532.991 580.595 536.476 578.198 536.476 578.198C536.476 578.198 539.088 578.417 539.961 579.068C540.831 579.721 543.012 580.81 543.012 582.118C543.012 583.426 543.012 590.396 543.012 590.396C543.012 590.396 540.83 593.881 543.446 594.974C546.058 596.063 553.252 600.856 554.775 601.506C556.298 602.16 557.825 603.468 558.479 603.033C559.133 602.594 560.003 601.506 560.003 600.417C560.003 599.329 559.133 596.278 559.133 596.278C559.133 596.278 556.518 595.409 556.298 594.101C556.079 592.793 554.775 590.181 555.864 588.654C556.956 587.127 557.391 585.168 559.784 585.388C562.18 585.603 564.142 586.476 565.231 585.822C566.319 585.168 570.678 584.08 570.678 582.553C570.678 581.029 572.42 577.106 571.551 575.582C570.678 574.059 567.192 571.005 567.192 570.135C567.192 569.266 566.754 563.384 566.754 561.857C566.754 560.33 565.885 556.848 565.231 556.41C564.58 555.975 559.568 556.191 559.568 556.191L556.518 559.241L559.349 562.073V563.819C559.349 563.819 555.429 564.254 554.556 564.688C553.686 565.123 552.378 565.342 551.944 566.212C551.505 567.085 551.286 568.393 550.636 569.047C549.982 569.701 548.893 570.57 548.893 570.57H544.754L543.012 571.443L541.269 571.224Z" fill="#8FC2FF"/>
<path d="M501.836 515.453C501.836 515.453 502.924 518.285 503.359 519.812C503.794 521.335 504.232 523.947 504.886 524.166C505.54 524.386 507.498 525.478 507.498 525.478L512.291 524.824C512.291 524.824 513.38 521.989 513.38 521.335C513.38 520.681 509.022 518.065 509.022 518.065L503.578 515.238L501.836 515.453Z" fill="#8FC2FF"/>
<path d="M346.502 732.877L341.929 735.054L340.621 737.017L335.174 741.371L339.313 744.206H340.621L343.668 743.117C343.668 743.117 346.287 743.333 346.937 744.422C347.591 745.51 346.502 747.476 348.461 748.126C350.422 748.78 354.996 749.653 354.996 749.653C354.996 749.653 361.97 751.391 362.844 751.391C363.713 751.391 369.16 751.177 369.814 750.957C370.464 750.738 375.042 748.78 375.042 748.78L379.616 749.869L390.51 753.792C390.51 753.792 397.48 757.931 399.226 758.15C400.965 758.365 408.59 758.801 410.336 758.801C412.079 758.801 421.445 758.15 423.188 758.801C424.934 759.454 427.981 760.978 429.505 761.197C431.032 761.416 435.609 760.763 436.479 760.763C437.348 760.763 444.972 761.416 444.972 761.416C444.972 761.416 446.719 756.838 446.065 756.619C445.407 756.404 443.449 756.185 441.706 755.75C439.96 755.316 435.609 755.535 435.609 755.535L434.517 754.445C434.517 754.445 432.99 752.915 431.251 752.915C429.505 752.915 426.239 752.915 424.934 752.915C423.623 752.915 416.652 752.915 415.998 752.915C415.344 752.915 413.383 752.48 413.383 751.177C413.383 749.869 412.729 748.564 415.344 747.911C417.96 747.252 422.315 746.599 423.623 745.944C424.934 745.294 428.416 743.986 428.416 743.117C428.416 742.243 428.635 741.59 427.981 741.371C427.327 741.152 424.715 740.282 424.715 740.282C424.715 740.282 419.487 740.282 419.487 741.371C419.487 742.464 419.703 742.464 418.83 742.898C417.96 743.333 409.682 745.51 409.682 745.51C409.682 745.51 406.412 746.164 405.324 745.51C404.235 744.856 399.877 742.898 398.788 742.464C397.699 742.029 390.944 740.716 390.944 740.716C390.944 740.716 385.717 741.152 385.063 741.371C384.409 741.59 382.67 741.805 380.924 741.59C379.181 741.371 372.211 740.501 370.903 739.194C369.595 737.889 363.059 733.966 363.059 733.966C363.059 733.966 360.882 730.915 356.523 730.915C352.169 730.915 346.502 732.877 346.502 732.877Z" fill="#FB90E5"/>
<path d="M455.867 758.366L451.512 760.11L451.727 763.16L456.959 767.081L463.491 768.388C463.491 768.388 466.107 766.86 467.415 766.645C468.722 766.426 470.681 764.683 474.385 764.683C478.089 764.683 479.397 765.121 481.355 765.121C483.317 765.121 485.933 764.032 485.933 763.38C485.933 762.722 485.714 760.545 484.844 760.329C483.971 760.11 482.444 759.674 480.486 758.585C478.524 757.494 473.516 756.186 473.516 756.186L470.027 756.405L467.634 758.802L464.364 760.545L459.352 759.021L455.867 758.366Z" fill="#FB90E5"/>
<path d="M507.063 758.366H501.616L498.785 759.24L494.43 761.852C494.43 761.852 493.338 764.248 494.43 764.682C495.519 765.121 504.232 765.556 505.755 765.99C507.283 766.426 524.489 766.426 524.489 766.426C524.489 766.426 527.544 763.16 528.413 762.941C529.286 762.722 537.13 761.417 538.653 761.417C540.177 761.417 543.881 759.674 543.881 759.674L541.269 757.058L529.936 757.275C529.936 757.275 525.147 757.932 524.928 758.585C524.709 759.24 520.789 761.633 520.789 761.633C520.789 761.633 517.303 762.286 516.215 761.852C515.126 761.417 511.202 760.109 511.202 760.109L507.063 758.366Z" fill="#FB90E5"/>
<path d="M516.215 653.142L509.464 651.834L506.194 652.707L501.401 656.408L497.258 659.023L492.465 670.352L491.376 677.538L487.895 685.82L486.368 689.305L481.79 696.276L480.701 700.853L485.714 705.423L490.941 705.646L492.465 706.951L492.903 716.101L491.815 724.161C491.815 724.161 491.595 726.996 491.595 727.65C491.595 728.3 491.595 730.263 492.249 730.263C492.903 730.263 493.557 730.916 494.43 730.477C495.3 730.042 495.519 728.084 496.389 727.431C497.258 726.776 500.747 723.072 500.528 721.984C500.312 720.895 499.658 718.064 499.004 717.19C498.347 716.32 497.258 716.101 497.696 714.355C498.131 712.617 498.131 706.735 498.131 706.081C498.131 705.423 498.131 698.888 498.131 698.888L504.013 697.149L507.063 698.453L508.152 700.634L505.105 703.246C505.105 703.246 504.232 703.246 504.886 704.335C505.54 705.423 506.629 707.604 507.498 707.824C508.371 708.039 510.768 709.128 510.768 709.128L511.856 711.093C511.856 711.093 510.987 716.32 512.076 716.756C513.164 717.19 513.599 717.409 514.472 717.409C515.345 717.409 521.227 716.537 521.227 716.537C521.227 716.537 524.055 715.01 524.055 714.14C524.055 713.271 525.366 710.874 524.055 709.563C522.75 708.258 521.443 707.389 521.443 706.3C521.443 705.212 522.097 699.98 522.097 699.107C522.097 698.238 518.392 694.095 518.392 694.095L514.034 690.613L513.814 685.601L516.434 684.731L519.261 684.297C519.261 684.297 524.489 680.592 525.582 680.373C526.67 680.154 529.286 679.284 530.156 678.192C531.029 677.103 532.337 675.145 532.337 675.145L532.771 673.403L529.721 672.745H524.055L519.481 673.403C519.481 673.403 517.084 674.272 516.434 674.711C515.78 675.145 511.856 676.234 511.856 676.234C511.856 676.234 512.076 678.85 511.856 679.719C511.637 680.592 510.552 682.55 510.552 682.55L509.679 682.985L503.794 681.896C503.794 681.896 503.794 682.331 502.489 681.462C501.182 680.592 497.258 677.323 497.258 676.669C497.258 676.015 497.258 674.272 497.258 674.272C497.258 674.272 496.608 669.479 497.258 668.175C497.912 666.863 504.671 661.201 504.671 661.201L514.472 658.589C514.472 658.589 521.227 658.154 524.055 658.589C526.89 659.023 534.514 660.547 534.514 660.547L542.792 660.982C542.792 660.982 547.585 658.154 548.02 657.5C548.458 656.842 552.163 651.18 552.163 650.526C552.163 649.872 551.286 647.914 551.286 647.914L547.804 647.475L546.277 650.961L542.792 654.884C542.792 654.884 541.05 655.754 540.176 655.754C539.307 655.754 534.079 654.884 532.337 654.884C530.594 654.884 524.489 654.23 524.489 654.23L518.392 652.272L516.215 653.142Z" fill="#FB90E5"/>
<path d="M731.238 764.9V697.363L726.011 696.059L711.851 689.304L694.636 684.73L687.016 689.089L683.961 692.135L678.518 694.313L672.636 699.541C672.636 699.541 670.459 701.941 669.37 702.156C668.278 702.376 665.447 703.464 664.577 703.245C663.704 703.03 656.949 693.005 656.949 693.005L653.903 679.718L651.502 672.309L642.355 669.697L631.241 669.478L627.756 672.309L625.794 675.36L619.913 676.668L619.259 679.503C619.259 679.503 618.389 680.807 619.478 681.026C620.57 681.241 626.667 682.33 626.667 682.33L629.064 684.73C629.064 684.73 630.372 687.996 631.022 688.866C631.68 689.739 629.499 690.828 633.422 691.266C637.346 691.701 649.979 691.047 649.979 691.047L652.814 694.313C652.814 694.313 654.991 695.84 653.029 696.059C651.068 696.275 647.144 696.275 645.401 696.275C643.662 696.275 638.65 695.84 637.781 695.84C636.908 695.84 633.422 695.84 633.422 695.84C633.422 695.84 631.68 697.798 631.899 698.452C632.114 699.106 636.908 701.506 636.908 701.506L638.431 703.464C638.431 703.464 638.869 708.473 639.52 709.127C640.174 709.781 644.097 711.527 644.097 711.527H645.401C645.401 711.527 647.363 709.127 647.582 708.473C647.802 707.823 648.89 706.734 648.89 706.734C648.89 706.734 655.861 708.911 656.949 710.215C658.042 711.527 662.177 715.666 664.139 716.1C666.101 716.536 668.059 716.974 671.109 717.189C674.164 717.408 685.054 718.932 685.708 718.932C686.362 718.932 696.602 725.903 697.906 726.561C699.214 727.211 704.876 729.172 704.876 731.35C704.876 733.53 702.918 733.965 704.876 735.707C706.842 737.45 708.581 738.539 709.235 739.627C709.889 740.716 710.108 741.804 710.108 741.804V747.475C710.108 747.475 709.235 748.345 706.623 748.999C704.007 749.652 701.61 750.302 701.61 750.302L696.602 754.006L695.948 756.619L696.817 757.931C696.817 757.931 700.96 759.239 702.918 759.239C704.876 759.239 721.221 756.838 721.875 757.057C722.525 757.273 723.614 758.584 724.703 759.673C725.791 760.763 727.538 764.9 727.538 764.9H731.238Z" fill="#FB90E5"/>
<path d="M615.342 711.094C615.342 711.094 612.507 710.44 610.984 708.694C609.457 706.951 607.93 704.989 607.06 704.989C606.191 704.989 598.782 704.554 598.782 704.554L591.812 705.862L585.93 703.9V701.288L590.069 698.888L600.963 697.584C600.963 697.584 609.018 697.365 610.111 698.019C611.199 698.673 613.815 700.2 614.25 700.854C614.685 701.508 615.558 704.335 615.558 704.335L615.342 711.094Z" fill="#FB90E5"/>
<path d="M576.559 708.473H573.078C573.078 708.473 567.627 708.692 567.408 707.823C567.192 706.95 566.104 704.769 566.104 704.769L563.707 701.068L566.754 699.325H570.243C570.243 699.325 571.766 701.068 572.42 701.506C573.078 701.941 578.086 702.81 578.086 702.81L578.521 705.645L576.559 708.473Z" fill="#FB90E5"/>
<path d="M585.35 643.491H582.987L581.895 644.766L581.349 647.861L578.439 652.769L578.982 657.863L579.346 664.414L582.805 667.873L585.35 670.782L588.263 670.6L588.81 668.783L586.082 666.052C586.082 666.052 585.532 664.414 586.261 664.05C586.989 663.689 588.992 662.597 590.084 662.415C591.173 662.233 594.268 658.956 594.268 658.956L593.904 653.137L591.537 650.952L587.899 650.41L585.714 646.951L585.35 643.491Z" fill="#FB90E5"/>
<path d="M622.528 133.33L623.836 126.794L627.756 121.566L633.638 122.22L643.443 123.528L648.021 113.723L660.435 97.3852L661.742 85.6217L659.784 78.4321H651.937L642.139 84.9641L632.988 87.5799L620.57 83.006L614.685 67.9728L602.267 64.7068C602.267 64.7068 585.276 58.1712 583.314 55.5554C581.352 52.9396 581.352 45.75 580.048 43.1379C578.74 40.5259 574.167 25.4927 570.897 19.6109C567.627 13.7255 557.825 8.4977 557.825 8.4977L528.413 0.000247256L509.464 3.26987L504.232 11.7637L507.498 17.6492L506.844 24.8388L496.389 36.6023L493.119 50.9778L480.051 57.5171L464.364 58.8213L460.31 56.6106L460.113 56.8595L459.463 64.3762L455.54 70.9155L451.62 83.3329L460.767 87.2528L469.919 87.5799L476.128 82.352L482.663 82.679L489.199 87.9068L495.408 93.4615L497.369 99.9973L492.792 103.267L477.108 104.902L459.463 105.879L454.559 110.457C454.559 110.457 450.966 118.95 450.312 119.931C449.658 120.912 444.757 119.931 444.757 119.931H432.667L428.743 126.14L422.861 129.083L417.633 129.737L413.383 127.121L405.87 128.102L402.6 132.676C402.6 132.676 404.889 136.272 405.87 137.58C406.847 138.884 406.847 142.808 406.847 142.808C406.847 142.808 402.931 147.055 401.292 148.036C399.661 149.017 395.084 149.344 395.084 149.344L388.875 157.184L381.031 163.065C381.031 163.065 374.169 163.065 371.557 162.742C368.941 162.415 367.964 160.453 367.964 160.453L360.774 159.803L344.756 161.761L332.343 172.544H326.134L320.579 168.297L311.101 167.643L304.892 165.358H297.375L288.878 160.126L272.541 157.837C272.541 157.837 238.227 158.491 235.611 158.164C232.999 157.837 227.445 139.211 227.445 139.211L222.54 135.945L213.719 131.371L210.45 124.832C210.45 124.832 205.876 122.547 204.568 122.547C203.26 122.547 192.151 122.22 192.151 122.22C192.151 122.22 184.961 121.893 183.326 121.239C181.695 120.585 178.425 118.95 178.425 118.95C178.425 118.95 176.136 115.684 176.136 114.703C176.136 113.723 178.752 110.457 178.752 110.457L181.037 107.841L183.98 101.632V98.0391L178.425 95.4234L176.463 93.1346L173.197 84.6408L157.837 80.0633L149.667 73.8546V69.2807L150.648 64.7068L144.112 63.3989L138.884 68.9537L136.595 76.1433L126.794 78.4321L124.832 93.1346L123.524 97.0583L120.258 99.6703L110.453 98.6894L106.86 95.7504L100.651 94.4425L100.324 98.3624C100.324 98.3624 96.4004 108.168 96.0734 109.476C95.7465 110.784 95.0962 114.05 95.0962 115.684C95.0962 117.315 97.7082 121.239 97.7082 121.239C97.7082 121.239 95.0962 124.182 94.1116 124.509C93.1344 124.832 88.2298 124.182 88.2298 124.182L82.6751 121.893H72.8734L69.9307 125.159C69.9307 125.159 69.2768 128.102 69.2768 129.41C69.2768 130.718 69.9307 134.637 69.9307 135.945C69.9307 137.253 72.5464 141.173 72.5464 141.173L74.1813 147.382C74.1813 147.382 73.8543 148.69 73.8543 149.671C73.8543 150.652 72.5464 151.629 71.2385 152.937C69.9307 154.245 69.6037 154.898 68.6265 156.206C67.6419 157.514 68.2996 158.818 68.2996 158.818L70.2576 160.78L69.2768 164.05L66.9917 166.662C66.9917 166.662 54.5742 170.586 53.5933 170.913C52.6124 171.24 50.3237 173.525 50.3237 173.525L48.0386 178.425L41.8298 180.064L33.0054 178.752C33.0054 178.752 27.1236 185.288 26.1427 186.273C25.1618 187.25 23.527 187.25 23.527 187.25L20.261 186.596L18.2992 184.634L12.0905 186.596L5.88173 189.862L0.653943 191.501L0 198.686L1.30789 207.511L5.88173 209.473L10.7826 211.431C10.7826 211.431 11.7635 216.332 12.4174 217.316C13.0714 218.297 13.3984 229.734 13.3984 229.734L15.6871 231.692L21.5689 235.942L23.527 242.151L29.0817 247.052L34.3132 249.668L40.8452 249.01L44.7689 251.953L48.3618 248.36L51.3045 245.421L54.2436 244.767L57.5133 245.744L67.3149 249.995L68.6265 254.245C68.6265 254.245 65.6838 262.412 64.7029 263.066C63.722 263.716 60.129 266.986 60.129 266.986L56.5324 267.967L51.9585 270.583L53.2664 274.176L58.4942 279.076L60.129 283.977L56.5324 286.92L53.2664 285.612L49.0158 287.901L50.9776 296.722L55.8784 305.546L66.0108 309.47L71.8925 317.31C71.8925 317.31 75.8162 317.31 77.1203 317.31C78.4282 317.31 79.736 314.371 79.736 314.371H85.2908L88.5568 317.31L111.761 336.593L125.813 343.779L134.964 344.106L144.439 346.395C144.439 346.395 146.728 345.418 148.036 344.437C149.34 343.452 149.34 342.148 149.34 342.148L155.552 342.798V346.068L158.491 351.95L162.738 349.007L165.681 341.167L169.928 339.205L179.079 343.125L186.269 342.798L189.862 346.068L196.397 345.418L204.241 337.898L207.838 332.016L215.351 330.385C215.351 330.385 221.559 331.362 223.194 331.362C224.829 331.362 226.137 329.077 226.137 329.077L232.345 326.134L235.939 336.593L241.17 339.205L249.991 339.536L253.914 340.513L255.872 347.703L261.427 348.684C261.427 348.684 260.773 359.466 260.773 360.447C260.773 361.428 258.815 366.983 258.161 367.964C257.507 368.945 252.606 372.215 251.299 372.865C249.991 373.519 248.683 381.035 248.683 381.035L249.664 388.879H255.219L260.45 392.149C260.45 392.149 260.773 397.373 261.1 399.007C261.427 400.642 264.043 400.315 265.351 400.642C266.655 400.969 265.351 404.566 265.024 406.197C264.697 407.828 265.024 412.079 265.024 412.079L269.598 412.733C269.598 412.733 271.887 418.615 272.541 421.557C273.194 424.5 283.65 420.576 283.65 420.576L289.859 419.922L292.148 410.771C292.148 410.771 298.356 410.771 299.337 410.771C300.314 410.771 300.314 407.505 300.314 407.505L309.793 405.543L322.864 406.851C322.864 406.851 326.134 405.216 327.111 403.912C328.096 402.6 327.438 400.315 327.438 400.315L330.708 397.703L333.647 397.373L337.57 400.969L340.513 403.912H345.741L348.353 406.524L347.376 412.733L350.315 414.041L358.823 421.821L360.748 418.447L365.567 419.413L369.42 415.56L373.756 416.036L374.722 420.855L379.055 421.338L379.538 419.413C379.538 419.413 380.021 418.447 381.462 418.447C382.911 418.447 385.315 420.372 385.315 420.372V425.191V431.456L386.281 435.309H388.21H390.617C392.063 432.901 392.063 430.973 392.063 429.527C392.063 428.086 391.101 425.191 391.101 425.191C391.101 425.191 387.244 424.708 389.176 422.783C391.101 420.855 395.916 420.372 395.916 420.372L405.071 417.964L416.151 415.077L419.042 411.224L422.415 405.439L426.751 404.477L428.676 406.405L436.386 406.888C439.277 406.888 457.1 404.96 457.1 404.96L464.81 394.359L478.297 387.133C478.297 387.133 480.222 383.763 482.15 382.313C484.079 380.872 490.34 377.015 491.306 375.573C492.268 374.124 497.566 368.826 497.566 368.826V361.599L492.268 354.855C492.268 354.855 486.97 353.41 493.23 351.482C499.495 349.557 499.495 349.557 499.495 349.557C499.495 349.557 505.276 347.146 506.721 346.187C508.167 345.221 506.721 345.221 509.612 343.293C512.503 341.368 516.356 338.956 516.356 338.956V330.767L517.801 323.541L522.62 320.171L520.209 317.759H513.948H511.054C511.054 317.759 505.755 317.276 505.755 315.834C505.755 314.389 508.167 311.981 508.167 311.981L516.839 310.053L519.247 308.125L517.801 305.234L509.129 301.864L501.419 297.045L499.012 294.637L503.831 292.709L509.129 293.192L515.873 296.083L520.209 298.011C520.692 295.6 518.764 290.78 518.764 290.78L510.575 285.965L506.721 283.557L501.902 273.919L501.419 267.658L494.676 261.394L486.97 258.986C486.97 258.986 486.487 255.133 486.97 253.205C487.453 251.28 490.34 248.386 490.34 248.386L500.457 240.197L506.239 238.755L512.02 232.974C512.02 232.974 515.39 232.491 517.322 232.491C519.247 232.491 528.398 230.562 528.398 230.562L524.545 224.781L517.322 224.302H511.054L505.755 220.928H503.831L499.495 223.335L498.049 227.672L493.713 231.042H486.97L485.041 222.373V217.554L481.671 216.112C481.671 216.112 476.369 217.075 474.927 217.075C473.478 217.075 469.142 218.037 468.663 214.663C468.18 211.293 467.214 206.957 467.214 206.957L469.625 202.621L477.814 202.138L483.117 204.55C483.117 204.55 486.004 207.44 487.936 205.029C489.86 202.621 490.34 203.584 491.306 201.655C492.268 199.731 491.306 200.214 492.268 198.285C493.23 196.357 491.306 199.251 493.23 196.357C495.159 193.466 496.604 192.021 496.604 192.021L504.793 189.13L510.575 180.458L518.764 179.979L522.62 183.832V188.651L516.839 193.466L513.465 197.802V202.138L512.986 206.957L513.465 209.365L522.62 209.844L525.028 206.474L539.482 194.915L545.728 193.663L543.773 186.923L555.21 184.307L561.745 181.041L566.973 179.406L570.243 169.932L575.471 168.297L580.698 173.198L585.93 174.179L588.542 171.89V167.643L596.713 168.297L596.059 163.392L600.309 162.742L604.552 158.818V152.937L609.784 150.979L615.342 154.245L624.152 154.441L622.528 133.33Z" fill="white"/>
<path d="M602.591 224.302C602.591 224.302 596.809 218.52 594.884 216.112C594.405 215.514 593.744 214.89 593.008 214.247L588.772 217.469H578.406L572.576 222.132L573.687 227.672L576.095 229.117C576.095 229.117 578.503 232.008 578.503 233.453C578.503 234.898 579.948 236.344 578.023 236.344C576.095 236.344 571.276 236.344 571.276 236.344C571.276 236.344 568.385 235.378 568.385 236.827C568.385 238.272 569.351 241.163 569.351 241.163L572.238 245.016C572.721 247.903 572.721 247.903 572.721 247.903C572.721 247.903 572.721 250.314 570.793 251.28C568.868 252.239 569.83 249.831 568.868 252.239C567.902 254.65 568.868 257.058 568.868 257.058L572.238 262.839H581.876C581.876 262.839 581.876 262.839 586.212 260.911C590.548 258.986 594.885 257.058 595.364 255.616C595.847 254.167 596.809 248.869 596.809 248.869H603.553C603.553 248.869 605.961 251.28 605.961 245.016C605.961 238.755 605.961 238.755 605.961 238.755L604.998 232.974L602.591 224.302Z" fill="#1553FF"/>
<path d="M622.528 133.33L623.836 126.794L627.756 121.566L633.638 122.22L643.443 123.528L648.021 113.723L660.435 97.3852L661.742 85.6217L659.784 78.4321H651.937L642.139 84.9641L632.988 87.5799L620.57 83.006L614.685 67.9728L602.267 64.7068C602.267 64.7068 585.276 58.1712 583.314 55.5554C581.352 52.9397 581.352 45.75 580.048 43.1379C578.74 40.5259 574.167 25.4927 570.897 19.6109C567.627 13.7255 557.825 8.49771 557.825 8.49771L528.413 0.000244141L509.464 3.26987L504.232 11.7637L507.498 17.6492L506.844 24.8387L496.389 36.6023L493.119 50.9778L480.051 57.5172L464.364 58.8213L460.31 56.6106L460.113 56.8595L459.463 64.3762L455.54 70.9155L451.62 83.3329L460.767 87.2528L469.919 87.5799L476.128 82.352L482.663 82.679L489.199 87.9068L495.408 93.4615L497.369 99.9973L492.792 103.267L477.108 104.902L459.463 105.879L454.559 110.457C454.559 110.457 450.966 118.95 450.312 119.931C449.658 120.912 444.757 119.931 444.757 119.931H432.667L428.743 126.14L422.861 129.083L417.633 129.737L413.383 127.121L405.87 128.102L402.6 132.676C402.6 132.676 404.889 136.272 405.87 137.58C406.847 138.884 406.847 142.808 406.847 142.808C406.847 142.808 402.931 147.055 401.292 148.036C399.661 149.017 395.084 149.344 395.084 149.344L388.875 157.184L381.031 163.065C381.031 163.065 374.169 163.065 371.557 162.742C368.941 162.415 367.964 160.453 367.964 160.453L360.774 159.803L344.756 161.761L332.343 172.544H326.134L320.579 168.297L311.101 167.643L304.892 165.358H297.375L288.878 160.126L272.541 157.837C272.541 157.837 238.227 158.491 235.611 158.164C232.999 157.837 227.445 139.211 227.445 139.211L222.54 135.945L213.719 131.371L210.45 124.832C210.45 124.832 205.876 122.547 204.568 122.547C203.26 122.547 192.151 122.22 192.151 122.22C192.151 122.22 184.961 121.893 183.326 121.239C181.695 120.585 178.425 118.95 178.425 118.95C178.425 118.95 176.136 115.684 176.136 114.703C176.136 113.723 178.752 110.457 178.752 110.457L181.037 107.841L183.98 101.632V98.0392L178.425 95.4234L176.463 93.1346L173.197 84.6408L157.837 80.0633L149.667 73.8546V69.2807L150.648 64.7068L144.112 63.3989L138.884 68.9537L136.595 76.1433L126.794 78.4321L124.832 93.1346L123.524 97.0583L120.258 99.6703L110.453 98.6894L106.86 95.7504L100.651 94.4425L100.324 98.3624C100.324 98.3624 96.4004 108.168 96.0734 109.476C95.7465 110.784 95.0962 114.05 95.0962 115.684C95.0962 117.315 97.7082 121.239 97.7082 121.239C97.7082 121.239 95.0962 124.182 94.1116 124.509C93.1344 124.832 88.2298 124.182 88.2298 124.182L82.6751 121.893H72.8734L69.9307 125.159C69.9307 125.159 69.2768 128.102 69.2768 129.41C69.2768 130.718 69.9307 134.637 69.9307 135.945C69.9307 137.253 72.5464 141.173 72.5464 141.173L74.1813 147.382C74.1813 147.382 73.8543 148.69 73.8543 149.671C73.8543 150.652 72.5464 151.629 71.2385 152.937C69.9307 154.245 69.6037 154.898 68.6265 156.206C67.6419 157.514 68.2996 158.818 68.2996 158.818L70.2576 160.78L69.2768 164.05L66.9917 166.662C66.9917 166.662 54.5742 170.586 53.5933 170.913C52.6124 171.24 50.3237 173.525 50.3237 173.525L48.0386 178.425L41.8298 180.064L33.0054 178.752C33.0054 178.752 27.1236 185.288 26.1427 186.273C25.1618 187.25 23.527 187.25 23.527 187.25L20.261 186.596L18.2992 184.634L12.0905 186.596L5.88173 189.862L0.653943 191.501L0 198.686L1.30789 207.511L5.88173 209.473L10.7826 211.431C10.7826 211.431 11.7635 216.332 12.4174 217.316C13.0714 218.297 13.3984 229.734 13.3984 229.734L15.6871 231.692L21.5689 235.942L23.527 242.151L29.0817 247.052L34.3132 249.668L40.8452 249.01L44.7689 251.953L48.3618 248.36L51.3045 245.421L54.2435 244.767L57.5133 245.744L67.3149 249.995L68.6265 254.245C68.6265 254.245 65.6838 262.412 64.7029 263.066C63.722 263.716 60.129 266.986 60.129 266.986L56.5324 267.967L51.9585 270.583L53.2664 274.176L58.4942 279.076L60.129 283.977L56.5324 286.92L53.2664 285.612L49.0158 287.901L50.9776 296.722L55.8784 305.546L66.0108 309.47L71.8925 317.31C71.8925 317.31 75.8162 317.31 77.1203 317.31C78.4282 317.31 79.736 314.371 79.736 314.371H85.2908L88.5568 317.31L111.761 336.593L125.813 343.779L134.964 344.106L144.439 346.395C144.439 346.395 146.728 345.418 148.036 344.437C149.34 343.452 149.34 342.148 149.34 342.148L155.552 342.798V346.068L158.491 351.95L162.738 349.007L165.681 341.167L169.928 339.205L179.079 343.125L186.269 342.798L189.862 346.068L196.397 345.418L204.241 337.898L207.838 332.016L215.35 330.385C215.35 330.385 221.559 331.362 223.194 331.362C224.829 331.362 226.137 329.077 226.137 329.077L232.346 326.134L235.939 336.593L241.17 339.205L249.991 339.536L253.914 340.513L255.872 347.703L261.427 348.684C261.427 348.684 260.773 359.466 260.773 360.447C260.773 361.428 258.815 366.983 258.161 367.964C257.507 368.945 252.606 372.215 251.299 372.865C249.991 373.519 248.683 381.035 248.683 381.035L249.664 388.879H255.219L260.45 392.149C260.45 392.149 260.773 397.373 261.1 399.007C261.427 400.642 264.043 400.315 265.351 400.642C266.655 400.969 265.351 404.566 265.024 406.197C264.697 407.828 265.024 412.079 265.024 412.079L269.598 412.733C269.598 412.733 271.887 418.615 272.541 421.557C273.194 424.5 283.65 420.576 283.65 420.576L289.859 419.922L292.148 410.771C292.148 410.771 298.356 410.771 299.337 410.771C300.314 410.771 300.314 407.505 300.314 407.505L309.793 405.543L322.864 406.851C322.864 406.851 326.134 405.216 327.111 403.912C328.096 402.6 327.438 400.315 327.438 400.315L330.708 397.703L333.647 397.373L337.57 400.969L340.513 403.912H345.741L348.353 406.524L347.376 412.733L350.315 414.041L358.823 421.821L360.748 418.447L365.567 419.413L369.42 415.56L373.756 416.036L374.722 420.855L379.055 421.338L379.538 419.413C379.538 419.413 380.021 418.447 381.462 418.447C382.911 418.447 385.315 420.372 385.315 420.372V425.191V431.456L386.281 435.309H388.21H390.617C392.063 432.901 392.063 430.973 392.063 429.527C392.063 428.086 391.101 425.191 391.101 425.191C391.101 425.191 387.244 424.708 389.176 422.783C391.101 420.855 395.916 420.372 395.916 420.372L405.071 417.964L416.151 415.077L419.042 411.224L422.415 405.439L426.751 404.477L428.676 406.405L436.386 406.888C439.277 406.888 457.1 404.96 457.1 404.96L464.81 394.359L478.297 387.133C478.297 387.133 480.222 383.763 482.15 382.313C484.079 380.872 490.34 377.015 491.306 375.573C492.268 374.124 497.566 368.826 497.566 368.826V361.599L492.268 354.855C492.268 354.855 486.97 353.41 493.23 351.482C499.495 349.557 499.495 349.557 499.495 349.557C499.495 349.557 505.276 347.146 506.721 346.187C508.167 345.221 506.722 345.221 509.612 343.293C512.503 341.368 516.356 338.956 516.356 338.956V330.767L517.801 323.541L522.62 320.171L520.209 317.759H513.948H511.054C511.054 317.759 505.755 317.276 505.755 315.834C505.755 314.389 508.167 311.981 508.167 311.981L516.839 310.053L519.247 308.125L517.801 305.234L509.129 301.864L501.419 297.045L499.012 294.637L503.831 292.709L509.129 293.192L515.873 296.083L520.209 298.011C520.692 295.6 518.764 290.78 518.764 290.78L510.575 285.965L506.721 283.557L501.902 273.919L501.419 267.658L494.676 261.394L486.97 258.986C486.97 258.986 486.487 255.133 486.97 253.205C487.453 251.28 490.34 248.386 490.34 248.386L500.457 240.197L506.239 238.755L512.02 232.974C512.02 232.974 515.39 232.491 517.322 232.491C519.247 232.491 528.398 230.562 528.398 230.562L524.545 224.781L517.322 224.302H511.054L505.755 220.928H503.831L499.495 223.335L498.049 227.672L493.713 231.042H486.97L485.041 222.373V217.554L481.671 216.112C481.671 216.112 476.369 217.075 474.927 217.075C473.478 217.075 469.142 218.037 468.663 214.663C468.18 211.293 467.214 206.957 467.214 206.957L469.625 202.621L477.814 202.138L483.117 204.55C483.117 204.55 486.004 207.44 487.936 205.029C489.86 202.621 490.34 203.584 491.306 201.655C492.268 199.731 491.306 200.214 492.268 198.285C493.23 196.357 491.306 199.251 493.23 196.357C495.159 193.466 496.604 192.021 496.604 192.021L504.793 189.13L510.575 180.458L518.764 179.979L522.62 183.832V188.651L516.839 193.466L513.465 197.802V202.138L512.986 206.957L513.465 209.365L522.62 209.844L525.028 206.474L539.482 194.915L545.728 193.663L543.773 186.923L555.21 184.307L561.745 181.041L566.973 179.406L570.243 169.932L575.471 168.297L580.698 173.198L585.93 174.178L588.542 171.89V167.643L596.713 168.297L596.059 163.392L600.309 162.742L604.552 158.818V152.937L609.784 150.979L615.342 154.245L624.152 154.441L622.528 133.33Z" fill="#00BBFF"/>
<path d="M231.521 477.849C231.439 478.005 231.379 478.139 231.309 478.28C231.379 478.139 231.439 478.002 231.521 477.849Z" fill="white"/>
<path d="M231.071 478.773C230.986 478.97 230.911 479.145 230.841 479.319C230.911 479.145 230.986 478.966 231.071 478.773Z" fill="white"/>
<path d="M335.393 486.695L331.469 482.775C331.469 482.775 328.857 481.467 326.461 480.594C324.064 479.724 326.242 479.29 326.242 479.29L328.203 476.02L330.6 468.396L325.153 465.345L319.052 461.21L316.002 456.632C316.002 456.632 313.17 456.197 312.082 456.197C310.993 456.197 309.031 459.244 309.031 459.244C309.031 459.244 306.415 462.079 305.761 462.733C305.111 463.387 304.238 462.733 303.365 462.733C302.495 462.733 300.314 462.079 300.314 462.079L299.229 460.333H292.909L292.255 464.476L287.243 466.872C287.243 466.872 285.066 467.742 284.196 467.742C283.323 467.742 283.542 467.526 282.45 467.091C281.361 466.653 281.8 464.691 281.8 464.691L285.939 460.117C285.939 460.117 287.243 458.809 287.901 458.155C288.551 457.505 288.116 454.016 288.116 454.016L286.154 443.995C286.154 443.995 281.8 445.303 280.927 444.865C280.057 444.43 279.403 444.211 279.403 444.211L280.492 437.241L278.53 435.067L278.749 431.359L266.005 438.548L261.427 441.818L249.664 442.472L246.725 460.767L247.052 467.961L255.545 475.15L259.142 482.667L258.815 485.606L257.18 486.914L255.873 493.777C255.873 493.777 253.914 494.43 253.914 495.411C253.914 496.389 252.607 499.658 253.914 500.966C255.219 502.27 265.024 512.076 265.024 512.076L264.697 524.493V527.436L262.081 539.526L258.99 541.247C258.99 541.243 258.99 541.243 258.99 541.243C259.053 542.313 259.098 543.487 259.098 544.669C259.098 548.522 257.652 556.232 257.652 556.232L253.799 566.349V569.236C253.799 569.236 259.581 572.127 261.505 573.093C263.434 574.055 274.034 590.433 274.034 590.433L274.755 592.521L283.977 593.662L285.066 596.713L288.116 600.636L295.525 600.855L297.268 593.881H297.349C297.063 592.001 296.677 590.433 296.677 590.433L288.005 587.546L282.223 586.58C282.223 586.58 278.85 584.169 278.85 582.727C278.85 581.282 277.887 571.644 277.887 571.644C277.887 571.644 272.589 564.421 272.106 562.972C271.623 561.53 270.177 560.085 268.732 559.119C267.287 558.156 265.841 560.564 264.879 557.677C263.917 554.782 263.917 549.005 263.917 547.559C263.917 546.11 263.917 541.295 266.807 537.921C269.698 534.551 273.551 529.732 273.551 527.804C273.551 525.879 272.106 515.762 272.106 515.762L276.925 510.463L283.669 511.909L285.597 518.173C285.597 518.173 286.076 520.098 288.484 521.06C290.892 522.026 295.711 522.509 295.711 522.509C295.711 522.509 297.639 521.543 300.53 523.951C301.797 525.01 303.161 526.158 304.286 527.116L304.892 521.989L302.276 518.719L300.099 513.711L302.495 508.264L308.596 504.124L324.28 503.47L334.524 504.998L334.739 502.382L336.697 495.192L335.393 486.695Z" fill="#9EFF00"/>
<path d="M230.755 479.524C230.67 479.74 230.599 479.933 230.54 480.111C230.599 479.937 230.673 479.736 230.755 479.524Z" fill="white"/>
<path d="M258.934 540.393C258.934 540.359 258.93 540.337 258.93 540.307C258.93 540.337 258.934 540.363 258.934 540.393Z" fill="white"/>
<path d="M295.614 522.498C295.625 522.498 295.632 522.498 295.643 522.502C295.636 522.498 295.621 522.498 295.614 522.498Z" fill="white"/>
<path d="M301.581 524.832C301.511 524.772 301.444 524.717 301.377 524.661C301.444 524.717 301.511 524.776 301.581 524.832Z" fill="white"/>
<path d="M302.558 525.653C302.495 525.601 302.432 525.546 302.365 525.49C302.428 525.546 302.495 525.601 302.558 525.653Z" fill="white"/>
<path d="M329.103 554.813C329.077 554.757 329.047 554.702 329.021 554.646C329.047 554.705 329.073 554.757 329.103 554.813Z" fill="white"/>
<path d="M467.307 617.627L456.847 616.977L450.639 619.916L449.985 628.741L443.449 632.661L443.122 637.565L438.548 640.827L438.872 646.386C438.872 646.386 433.971 651.287 431.686 652.271C429.397 653.249 420.576 654.229 420.576 654.229L417.306 649.329L410.117 650.633L401.292 656.515C401.292 656.515 392.468 655.861 389.529 655.21C386.586 654.556 380.05 649.652 380.05 649.652L378.861 642.518H377.646L373.808 648.095C373.808 648.095 369.621 651.588 369.621 652.985C369.621 654.382 371.367 660.661 371.367 660.661L375.9 665.551L378.694 673.576L388.815 679.161C388.815 679.161 389.514 693.819 391.61 695.212C393.701 696.609 399.984 699.753 399.984 699.753H406.617C406.617 699.753 405.569 703.242 407.312 703.242C409.058 703.242 415.686 703.94 415.686 703.94L427.558 700.102L438.374 709.175C438.374 709.175 451.984 707.429 451.984 706.381C451.984 705.337 452.337 698.006 453.031 696.26C453.73 694.517 456.52 684.396 456.52 684.396L462.454 679.51L465.598 670.433V662.407C465.598 662.407 478.16 656.823 479.557 656.823C480.954 656.823 485.487 658.919 484.792 655.775C484.09 652.636 482.697 649.147 482.697 649.147L475.719 647.4C475.719 647.4 469.083 642.518 469.083 641.121C469.083 639.724 469.785 634.485 469.785 634.485L465.947 629.253L468.737 625.062L467.307 617.627Z" fill="#FB90E5"/>
<path d="M792.894 137.097L784.75 142.998L781.54 144.599L781.406 144.93C781.38 144.982 778.998 150.696 778.062 152.577C777.709 153.268 774.004 152.699 772.429 152.454C771.065 152.246 769.787 152.049 768.795 152.049C765.492 152.049 762.546 156.322 762.196 156.846C760.457 159.748 757.485 164.095 756.329 164.671C755.077 165.28 754.145 164.463 753.952 164.284L744.087 156.883L735.303 156.411L731.205 155.385L727.107 156.56L726.943 157.035C726.902 157.158 725.929 160.101 725.929 162.152C725.929 162.746 726.152 163.251 726.568 163.627C727.582 164.537 729.414 164.34 731.038 164.162C731.484 164.113 731.889 164.069 732.041 164.002C732.346 164.37 732.264 166.246 732.23 167.145C732.215 167.528 732.201 167.896 732.189 168.293C731.833 168.204 731.246 167.933 730.785 167.625L730.543 167.465H728.329L723.759 168.676L722.986 164.812L721.645 159.428L724.729 154.568L728.801 149.593L737.551 149.106L741.798 142.206L742.292 129.395V123.785L743.403 120.808L745.432 121.102L747.264 126.582L758.555 135.908L772.823 140.895L773.064 140.98L773.317 140.924C773.428 140.906 775.966 140.382 779.466 137.878C780.191 137.358 780.875 137.161 781.558 137.305C782.929 137.569 783.88 139.044 783.888 139.059L784.404 139.862L792.894 134.497V137.097ZM781.941 135.437C780.711 135.203 779.522 135.496 778.359 136.332C775.803 138.153 773.826 138.818 773.172 139L759.633 134.333L748.898 125.46L746.87 119.382L742.155 118.705L740.445 123.276L740.382 129.358L739.914 141.634L736.447 147.263L727.857 147.735L723.187 153.453L719.597 159.097L721.128 165.228L722.295 171.05L728.455 169.371H729.975C730.759 169.854 732.215 170.564 733.245 170.029C733.561 169.858 734.099 169.419 734.099 168.416C734.099 168.059 734.114 167.654 734.133 167.227C734.211 165.44 734.281 163.593 733.416 162.69C732.851 162.096 732.093 162.133 730.833 162.27C730.101 162.348 728.158 162.564 727.839 162.152C727.839 160.847 728.348 158.978 728.604 158.109L731.238 157.358L735.021 158.287L743.403 158.748L752.707 165.715C752.789 165.797 754.669 167.651 757.173 166.376C759.25 165.347 763.084 159.075 763.809 157.864C764.485 156.849 766.852 153.951 768.795 153.951C769.635 153.951 770.85 154.141 772.139 154.338C775.558 154.869 778.794 155.371 779.767 153.424C780.607 151.737 782.498 147.248 783.026 145.985L785.734 144.622L794.797 138.071V131.037L784.913 137.283C784.319 136.614 783.297 135.704 781.941 135.437Z" fill="#365E99"/>
<path d="M741.906 206.025L737.856 210.521L732.706 213.099L732.212 223.522C732.215 223.548 732.676 225.885 732.676 228.634C732.676 230.707 729.722 234.442 728.585 235.705L728.318 235.998L728.34 236.4C728.348 236.478 728.727 244.44 723.647 253.209C721.255 257.344 720.181 257.222 720.136 257.211C719.735 257.129 719.278 255.958 719.159 255.015L719.051 254.179H705.697V258.689L699.426 259.964H693.555L691.106 257.512L685.136 258.11L684.474 261.435L685.344 264.489L681.175 268.658C680.328 268.751 678.184 269.112 674.045 270.616C671.863 271.412 671.076 271.322 670.935 271.352L671.094 270.947L669.5 268.287L668.501 262.308L664.091 258.998H659.918L653.572 260.93L642.971 261.892L638.345 263.891C638.208 263.951 634.923 265.363 632.999 266.321C631.434 267.102 628.867 268.224 628.027 268.595L622.328 267.369V266.277C622.859 265.979 623.836 265.496 624.98 265.21C627.098 264.679 628.874 263.115 629.51 261.216C629.755 260.484 631.732 258.429 633.471 256.899L643.202 252.269L648.838 253.194H657.027C657.96 253.194 658.476 252.752 658.744 252.384C659.249 251.682 659.234 250.72 659.127 249.999L664.28 248.412L667.587 249.241L671.05 253.194H678.217V246.372L679.785 244.797L682.464 242.653L684.887 229.608L687.87 226.921V234.029L698.077 232.955C702.179 232.524 703.509 232.008 703.568 230.838C703.583 230.499 703.609 229.819 702.023 229.195L706.359 225.937L711.657 220.638C712.731 219.568 713.363 218.933 713.723 218.576C714.18 218.398 714.812 217.84 715.952 216.822C717.242 215.678 718.65 214.192 718.063 212.873C717.732 212.126 716.952 211.862 716.276 211.792V208.34L722.02 203.071L722.551 196.703L720.14 190.431L720.575 184.326L726.382 179.864L734.27 177.077H736.689L737.492 181.424V187.685L742.756 202.209L741.906 206.025ZM739.379 181.253L738.279 175.171H734.107L725.602 178.117L718.739 183.338L718.212 190.721L720.619 196.978L720.181 202.168L714.366 207.496L714.373 213.798L715.425 213.686C715.681 213.657 716.004 213.675 716.212 213.709C716.075 213.969 715.704 214.497 714.689 215.399C714.136 215.89 713.756 216.217 713.515 216.425C713.069 216.533 712.345 217.253 710.308 219.29L705.114 224.503L697.631 230.117L699.719 230.537C699.957 230.581 700.202 230.641 700.44 230.708C699.853 230.815 699.028 230.938 697.876 231.057L689.78 231.915V222.645L683.125 228.63L681.624 237.121L680.729 241.602L678.518 243.378L676.307 245.585V251.292H671.912L668.627 247.535L664.228 246.432L656.786 248.728L657.09 249.649C657.313 250.329 657.332 251.125 657.027 251.292L648.994 251.303L642.919 250.289L632.534 255.234L632.311 255.375C631.639 255.966 628.235 259.002 627.7 260.61C627.347 261.677 626.221 262.936 624.516 263.364C622.458 263.876 620.919 264.894 620.849 264.935L620.425 265.221V268.911L628.217 270.579L628.499 270.464C628.637 270.401 631.921 268.989 633.846 268.027C635.73 267.09 639.062 265.656 639.107 265.638L643.298 263.776L653.936 262.788L660.063 260.904H663.459L666.747 263.378L667.65 268.781L669.025 271.196C668.976 271.657 669.077 272.188 669.482 272.608C669.872 273.009 670.429 273.217 671.191 273.217C672.064 273.217 673.216 272.946 674.695 272.407C679.685 270.594 681.591 270.538 681.598 270.538H681.992L687.491 265.043L686.429 261.354L686.73 259.864L690.4 259.503L692.767 261.866L699.608 261.848L707.604 260.25V256.085H717.424C717.68 257.148 718.312 258.782 719.757 259.076C721.44 259.433 723.168 257.85 725.297 254.164C730.079 245.912 730.28 238.492 730.254 236.69C731.279 235.508 734.579 231.473 734.579 228.634C734.579 225.762 734.122 223.38 734.099 223.377L734.553 214.303L738.874 212.141L743.656 206.924L744.733 202.072L739.398 187.518L739.379 181.253Z" fill="#365E99"/>
<path d="M616.045 294.846L618.051 285.817L615.669 281.644H611.274V285.249L607.146 284.297L609.156 277.063L616.238 274.563C617.003 275.41 618.712 276.784 621.659 276.784C621.67 276.784 621.681 276.784 621.692 276.784L626.314 277.624L626.775 280.849L627.266 281.057C628.47 281.574 630.595 282.722 631.182 283.602C631.769 284.468 631.241 285.349 631.234 285.371C631.078 285.568 627.34 290.235 626.363 291.702C625.434 293.103 624.624 297.737 624.353 299.386L620.225 302.277L615.636 301.136L616.045 294.846ZM613.63 302.593L620.604 304.343L626.11 300.482L626.177 300.077C626.563 297.569 627.37 293.631 627.949 292.758C628.882 291.364 632.687 286.608 632.772 286.493C633.259 285.761 633.809 284.104 632.772 282.547C631.888 281.225 629.562 280.024 628.51 279.53L628.005 275.997L621.863 274.893C618.657 274.893 617.434 273.039 617.375 272.943L616.977 272.281L607.584 275.599L604.779 285.706L613.18 287.645V283.547H614.562L616.034 286.122L614.165 294.575L613.63 302.593Z" fill="#365E99"/>
<path d="M643.674 270.056H647.166L650.759 268.001L652.717 265.237H657.566L660.888 268.978C660.866 270.037 660.728 273.18 659.996 275.012C659.368 276.577 658.287 277.134 657.901 277.286C657.05 277.175 653.914 276.822 649.321 276.822C646.003 276.822 646.003 276.822 645.936 277.732L645.955 277.84C645.048 278.438 644.588 279.385 643.975 280.649C643.703 281.199 643.391 281.845 642.979 282.599H642.095C641.363 282.599 640.946 282.455 640.263 282.22C639.795 282.057 639.241 281.86 638.472 281.671C638.011 281.552 637.87 281.518 638.1 280.028C638.167 279.59 638.23 279.148 638.23 278.739L638.219 274.269L637.855 271.72L643.674 270.056ZM636.216 279.738C636.042 280.857 635.722 282.945 638.011 283.517C638.713 283.692 639.208 283.866 639.635 284.015C640.389 284.279 641.043 284.509 642.095 284.509H644.094L644.365 284.026C644.941 283.019 645.349 282.176 645.691 281.485C646.483 279.842 646.732 279.404 647.623 279.181C647.817 279.133 648.255 279.025 648.53 278.728C648.764 278.728 649.028 278.728 649.321 278.728C654.482 278.728 657.826 279.196 657.86 279.2L658.045 279.229L658.224 279.181C658.324 279.163 660.635 278.549 661.768 275.722C662.786 273.169 662.798 268.807 662.798 268.625V268.261L658.421 263.334H651.699L649.615 266.463L646.661 268.15H643.54L635.734 270.345L636.324 274.403V278.739C636.324 279.055 636.268 279.393 636.216 279.738Z" fill="#365E99"/>
<path d="M576.062 707.527H573.041C570.99 707.602 568.916 707.498 568.244 707.289C567.906 706.264 567.059 704.551 566.906 704.258L565.052 701.397L567.01 700.278H569.816C570.328 700.854 571.317 701.917 571.893 702.296C572.532 702.723 575.278 703.277 577.25 703.633L577.522 705.413L576.062 707.527ZM578.25 701.872C576.035 701.489 573.371 700.928 572.948 700.713C572.569 700.46 571.555 699.383 570.96 698.707L570.674 698.376H566.501L562.362 700.743L565.253 705.198C565.658 706.004 566.345 707.494 566.483 708.047C566.609 708.564 566.836 709.467 571.35 709.467C571.867 709.467 572.439 709.456 573.078 709.43H577.057L579.521 705.874L578.922 701.987L578.25 701.872Z" fill="#365E99"/>
</svg>
